<svg width="30" height="30" viewBox="0 0 30 30" fill="none" xmlns="http://www.w3.org/2000/svg">
<rect width="30" height="30" rx="15" fill="#FAF5F8"/>
<path d="M17.025 22.3295H12.9341C9.23181 22.3295 7.64999 20.7477 7.64999 17.0454V12.9545C7.64999 9.25223 9.23181 7.67041 12.9341 7.67041H14.2977C14.5773 7.67041 14.8091 7.90223 14.8091 8.18177C14.8091 8.46132 14.5773 8.69314 14.2977 8.69314H12.9341C9.7909 8.69314 8.67272 9.81132 8.67272 12.9545V17.0454C8.67272 20.1886 9.7909 21.3068 12.9341 21.3068H17.025C20.1682 21.3068 21.2864 20.1886 21.2864 17.0454V15.6818C21.2864 15.4022 21.5182 15.1704 21.7977 15.1704C22.0773 15.1704 22.3091 15.4022 22.3091 15.6818V17.0454C22.3091 20.7477 20.7341 22.3295 17.025 22.3295Z" fill="#A30162"/>
<path d="M15.5318 17.2091C15.4295 17.2091 15.3341 17.1818 15.2454 17.1204C15.1023 17.025 15.0204 16.8681 15.0204 16.6977C15.0204 16.6227 15.0136 16.5409 15 16.4591C14.9523 16.0977 14.7886 15.7772 14.5159 15.4977C14.2363 15.2181 13.8954 15.0409 13.5204 14.9931C13.4659 14.9863 13.3773 14.9795 13.2954 14.9863C13.125 15 12.9545 14.925 12.8523 14.7886C12.75 14.6522 12.7227 14.4681 12.7773 14.3045C12.8591 14.0727 12.9886 13.8545 13.1386 13.6841L13.9773 12.6341C15.4363 10.8136 18.375 8.63178 20.5432 7.76587C21.0409 7.57496 21.5659 7.68405 21.9273 8.04542C22.3023 8.42042 22.4113 8.95223 22.2136 9.43633C21.3477 11.5977 19.1659 14.5431 17.3523 15.9954L16.2818 16.8545C16.0704 17.0045 15.9 17.1068 15.7227 17.175C15.6613 17.1954 15.5932 17.2091 15.5318 17.2091ZM14.1273 14.0931C14.5432 14.2295 14.9182 14.4613 15.2386 14.775C15.5523 15.0886 15.7773 15.45 15.9068 15.8386L16.7113 15.1909C18.4091 13.8272 20.4545 11.0727 21.2659 9.04769C21.3204 8.91814 21.2591 8.82269 21.2045 8.76133C21.1704 8.72723 21.075 8.65223 20.9182 8.7136C18.9 9.52496 16.1454 11.5704 14.7818 13.2681L14.1273 14.0931Z" fill="#A30162"/>
<path d="M12.0682 19.6022C11.6318 19.6022 11.2159 19.4317 10.9023 19.1181C10.5409 18.7567 10.3636 18.259 10.425 17.7476L10.5682 16.4113C10.7182 15.0272 11.8432 14.0045 13.2546 13.9772C13.3636 13.9704 13.5 13.9772 13.6296 13.984C14.25 14.0658 14.8023 14.3386 15.2386 14.7817C15.675 15.2181 15.9409 15.7363 16.0159 16.3226C16.0364 16.4522 16.0432 16.5817 16.0432 16.7045C16.0432 17.4476 15.7568 18.1499 15.2318 18.6749C14.8023 19.1045 14.2432 19.3704 13.6091 19.4522L12.2591 19.5954C12.1909 19.6022 12.1296 19.6022 12.0682 19.6022ZM13.3636 14.9931C13.3432 14.9931 13.3159 14.9931 13.2955 14.9931C12.5114 15.0136 11.6864 15.5386 11.5841 16.5204L11.4409 17.8636C11.4205 18.0613 11.4886 18.259 11.625 18.3954C11.7614 18.5317 11.9523 18.5999 12.1432 18.5795L13.4864 18.4363C13.8818 18.3886 14.2364 18.2181 14.5023 17.9522C14.8296 17.6181 15.0136 17.1817 15.0136 16.7045C15.0136 16.6295 15.0068 16.5476 14.9932 16.4658C14.9455 16.1045 14.7818 15.784 14.5091 15.5045C14.2296 15.2249 13.8886 15.0476 13.5136 14.9999C13.4796 14.9931 13.425 14.9931 13.3636 14.9931Z" fill="#A30162"/>
<path d="M17.6045 15.4976C17.325 15.4976 17.0932 15.2658 17.0932 14.9863C17.0932 13.8476 16.1659 12.9135 15.0205 12.9135C14.7409 12.9135 14.5091 12.6817 14.5091 12.4022C14.5091 12.1226 14.7409 11.8908 15.0205 11.8908C16.725 11.8908 18.1159 13.2749 18.1159 14.9863C18.1159 15.2658 17.8909 15.4976 17.6045 15.4976Z" fill="#A30162"/>
</svg>
