<svg width="88" height="87" viewBox="0 0 88 87" fill="none" xmlns="http://www.w3.org/2000/svg">
<g clip-path="url(#clip0_234_2891)">
<path d="M44 87C38.1058 87 32.545 84.4118 28.746 79.8986C23.1635 80.5366 17.4106 78.4305 13.2419 74.2617C9.07675 70.093 6.97425 64.3293 7.47812 58.4495C3.08825 54.955 0.5 49.3942 0.5 43.5C0.5 37.6058 3.08825 32.045 7.605 28.246C6.97062 22.6744 9.07313 16.9106 13.2419 12.7419C17.4106 8.57313 23.1635 6.45975 29.0505 6.97812C32.545 2.59187 38.1058 0 44 0C49.8942 0 55.455 2.58825 59.254 7.10138C64.8438 6.47425 70.5894 8.5695 74.7581 12.7382C78.9233 16.907 81.0257 22.6707 80.5219 28.5505C84.9118 32.045 87.5 37.6058 87.5 43.5C87.5 49.3942 84.9118 54.955 80.395 58.754C81.0294 64.3256 78.9269 70.0894 74.7581 74.2581C70.5858 78.4269 64.822 80.5149 58.9495 80.0219C55.455 84.4081 49.8942 87 44 87ZM29.0396 72.7755C31.0732 72.7755 32.9583 73.6491 34.2886 75.226C36.7101 78.1006 40.2481 79.75 44 79.75C47.7519 79.75 51.2899 78.1006 53.7114 75.226C55.1722 73.4896 57.3001 72.6124 59.5694 72.7973C63.3176 73.1126 66.9789 71.7822 69.6324 69.1287C72.2822 66.4789 73.6199 62.8104 73.3009 59.0658C73.1051 56.8038 73.9896 54.6686 75.7296 53.2041C78.6006 50.7863 80.25 47.2446 80.25 43.4964C80.25 39.7481 78.6006 36.2065 75.7296 33.7886C73.9932 32.3278 73.1051 30.189 73.3009 27.927C73.6199 24.1824 72.2859 20.5139 69.6324 17.864C66.9789 15.2141 63.2959 13.8982 59.573 14.1955C57.3037 14.3985 55.1722 13.5031 53.7114 11.7704C51.2899 8.89575 47.7519 7.24637 44 7.24637C40.2481 7.24637 36.7101 8.89575 34.2886 11.7704C32.8241 13.5068 30.689 14.3767 28.4306 14.1991C24.6642 13.8729 21.0211 15.2141 18.3676 17.8676C15.7177 20.5175 14.3801 24.186 14.6991 27.9306C14.8949 30.1926 14.0104 32.3277 12.2704 33.7922C9.39937 36.2101 7.75 39.7518 7.75 43.5C7.75 47.2482 9.39937 50.7899 12.2704 53.2078C14.0068 54.6686 14.8949 56.8074 14.6991 59.0694C14.3801 62.814 15.7141 66.4825 18.3676 69.1324C21.0211 71.7822 24.7222 73.1018 28.427 72.8009C28.6336 72.7828 28.8366 72.7755 29.0396 72.7755ZM46.9036 54.8644L64.0825 38.3054C65.5216 36.917 65.5651 34.6187 64.1731 33.1796C62.7848 31.7405 60.4901 31.697 59.0474 33.0854L41.8214 49.6915C40.404 51.1089 38.1166 51.1089 36.6014 49.6009L28.3436 41.9268C26.8864 40.5674 24.5881 40.6471 23.2215 42.1152C21.8585 43.5798 21.9419 45.8744 23.41 47.2374L31.5735 54.8209C33.6978 56.9451 36.4926 58.0073 39.2803 58.0073C42.0534 58.0073 44.812 56.9596 46.9072 54.868L46.9036 54.8644Z" fill="#4CAF50"/>
</g>
<defs>
<clipPath id="clip0_234_2891">
<rect width="87" height="87" fill="white" transform="translate(0.5)"/>
</clipPath>
</defs>
</svg>
