<svg width="22" height="22" viewBox="0 0 22 22" fill="none" xmlns="http://www.w3.org/2000/svg">
<rect x="-3.05176e-05" y="0.154297" width="21.5385" height="21.5385" rx="10.7692" fill="#2196F3"/>
<rect x="-3.05176e-05" y="0.154297" width="21.5385" height="21.5385" rx="10.7692" fill="white" fill-opacity="0.9"/>
<path d="M8.61533 7.55833C8.39456 7.55833 8.21149 7.37525 8.21149 7.15448V5.5391C8.21149 5.31833 8.39456 5.13525 8.61533 5.13525C8.8361 5.13525 9.01918 5.31833 9.01918 5.5391V7.15448C9.01918 7.37525 8.8361 7.55833 8.61533 7.55833Z" fill="#2196F3"/>
<path d="M12.923 7.55833C12.7023 7.55833 12.5192 7.37525 12.5192 7.15448V5.5391C12.5192 5.31833 12.7023 5.13525 12.923 5.13525C13.1438 5.13525 13.3269 5.31833 13.3269 5.5391V7.15448C13.3269 7.37525 13.1438 7.55833 12.923 7.55833Z" fill="#2196F3"/>
<path d="M15.3461 9.76082H6.19227C5.9715 9.76082 5.78842 9.57774 5.78842 9.35697C5.78842 9.1362 5.9715 8.95312 6.19227 8.95312H15.3461C15.5669 8.95312 15.75 9.1362 15.75 9.35697C15.75 9.57774 15.5669 9.76082 15.3461 9.76082Z" fill="#2196F3"/>
<path d="M12.923 16.7121H8.61535C6.64996 16.7121 5.5192 15.5813 5.5192 13.6159V9.03903C5.5192 7.07364 6.64996 5.94287 8.61535 5.94287H12.923C14.8884 5.94287 16.0192 7.07364 16.0192 9.03903V13.6159C16.0192 15.5813 14.8884 16.7121 12.923 16.7121ZM8.61535 6.75056C7.07535 6.75056 6.32689 7.49903 6.32689 9.03903V13.6159C6.32689 15.1559 7.07535 15.9044 8.61535 15.9044H12.923C14.463 15.9044 15.2115 15.1559 15.2115 13.6159V9.03903C15.2115 7.49903 14.463 6.75056 12.923 6.75056H8.61535Z" fill="#2196F3"/>
<path d="M8.88456 12.2698C8.81456 12.2698 8.74456 12.2537 8.67994 12.2267C8.61533 12.1998 8.5561 12.1621 8.50226 12.1136C8.4538 12.0598 8.41609 12.0006 8.38917 11.936C8.36225 11.8713 8.3461 11.8013 8.3461 11.7313C8.3461 11.5913 8.40534 11.4513 8.50226 11.349C8.5561 11.3006 8.61533 11.2629 8.67994 11.2359C8.77687 11.1929 8.88457 11.1821 8.99226 11.2036C9.02457 11.209 9.05687 11.2198 9.08918 11.2359C9.12149 11.2467 9.15379 11.2629 9.1861 11.2844C9.21302 11.306 9.23994 11.3275 9.26686 11.349C9.2884 11.376 9.31532 11.4029 9.33148 11.4298C9.35302 11.4621 9.36918 11.4944 9.37995 11.5267C9.39611 11.559 9.40687 11.5913 9.41226 11.6236C9.41764 11.6613 9.42302 11.6936 9.42302 11.7313C9.42302 11.8713 9.36379 12.0113 9.26686 12.1136C9.16456 12.2106 9.02456 12.2698 8.88456 12.2698Z" fill="#2196F3"/>
<path d="M10.7692 12.2697C10.6292 12.2697 10.4892 12.2105 10.3869 12.1135C10.3653 12.0866 10.3438 12.0597 10.3223 12.0328C10.3007 12.0005 10.2846 11.9682 10.2738 11.9358C10.2576 11.9035 10.2469 11.8712 10.2415 11.8389C10.2361 11.8012 10.2307 11.7689 10.2307 11.7312C10.2307 11.6612 10.2469 11.5912 10.2738 11.5266C10.3007 11.462 10.3384 11.4028 10.3869 11.3489C10.5376 11.1982 10.7799 11.1497 10.9738 11.2358C11.0438 11.2628 11.0976 11.3005 11.1515 11.3489C11.2484 11.4512 11.3076 11.5912 11.3076 11.7312C11.3076 11.7689 11.3023 11.8012 11.2969 11.8389C11.2915 11.8712 11.2807 11.9035 11.2646 11.9358C11.2538 11.9682 11.2376 12.0005 11.2161 12.0328C11.1946 12.0597 11.173 12.0866 11.1515 12.1135C11.0976 12.162 11.0438 12.1997 10.9738 12.2266C10.9092 12.2535 10.8392 12.2697 10.7692 12.2697Z" fill="#2196F3"/>
<path d="M8.88456 14.1545C8.81456 14.1545 8.74456 14.1383 8.67994 14.1114C8.61533 14.0845 8.5561 14.0468 8.50226 13.9983C8.4538 13.9444 8.41609 13.8906 8.38917 13.8206C8.36225 13.756 8.3461 13.686 8.3461 13.616C8.3461 13.476 8.40534 13.336 8.50226 13.2337C8.5561 13.1852 8.61533 13.1475 8.67994 13.1206C8.87917 13.0344 9.1161 13.0829 9.26686 13.2337C9.2884 13.2606 9.31532 13.2875 9.33148 13.3145C9.35302 13.3468 9.36918 13.3791 9.37995 13.4114C9.39611 13.4437 9.40687 13.476 9.41226 13.5137C9.41764 13.546 9.42302 13.5837 9.42302 13.616C9.42302 13.756 9.36379 13.896 9.26686 13.9983C9.16456 14.0952 9.02456 14.1545 8.88456 14.1545Z" fill="#2196F3"/>
</svg>
