<svg width="30" height="30" viewBox="0 0 30 30" fill="none" xmlns="http://www.w3.org/2000/svg">
<rect width="30" height="30" rx="15" fill="#FF9800"/>
<rect width="30" height="30" rx="15" fill="white" fill-opacity="0.9"/>
<path d="M17.7273 22.3295H12.2727C9.12272 22.3295 8.53636 20.8636 8.38636 19.4386L7.87499 13.9773C7.79999 13.2614 7.77954 12.2045 8.48863 11.4136C9.10227 10.7318 10.1182 10.4045 11.5909 10.4045H18.4091C19.8886 10.4045 20.9045 10.7386 21.5114 11.4136C22.2204 12.2045 22.2 13.2614 22.125 13.9841L21.6136 19.4318C21.4636 20.8636 20.8773 22.3295 17.7273 22.3295ZM11.5909 11.4204C10.4386 11.4204 9.64772 11.6454 9.24545 12.0954C8.91136 12.4636 8.80227 13.0295 8.8909 13.875L9.40227 19.3364C9.51818 20.4136 9.81136 21.3068 12.2727 21.3068H17.7273C20.1818 21.3068 20.4818 20.4136 20.5977 19.3295L21.1091 13.8818C21.1977 13.0295 21.0886 12.4636 20.7545 12.0954C20.3523 11.6454 19.5614 11.4204 18.4091 11.4204H11.5909Z" fill="#FF9800"/>
<path d="M17.7273 11.4205C17.4477 11.4205 17.2159 11.1887 17.2159 10.9091V10.3637C17.2159 9.15002 17.2159 8.6932 15.5454 8.6932H14.4545C12.7841 8.6932 12.7841 9.15002 12.7841 10.3637V10.9091C12.7841 11.1887 12.5523 11.4205 12.2727 11.4205C11.9932 11.4205 11.7614 11.1887 11.7614 10.9091V10.3637C11.7614 9.16365 11.7614 7.67047 14.4545 7.67047H15.5454C18.2386 7.67047 18.2386 9.16365 18.2386 10.3637V10.9091C18.2386 11.1887 18.0068 11.4205 17.7273 11.4205Z" fill="#FF9800"/>
<path d="M15 18.2386C13.125 18.2386 13.125 17.0796 13.125 16.3841V15.6818C13.125 14.7205 13.3568 14.4886 14.3182 14.4886H15.6818C16.6432 14.4886 16.875 14.7205 16.875 15.6818V16.3636C16.875 17.0727 16.875 18.2386 15 18.2386ZM14.1477 15.5114C14.1477 15.5659 14.1477 15.6273 14.1477 15.6818V16.3841C14.1477 17.0864 14.1477 17.2159 15 17.2159C15.8523 17.2159 15.8523 17.1068 15.8523 16.3773V15.6818C15.8523 15.6273 15.8523 15.5659 15.8523 15.5114C15.7977 15.5114 15.7364 15.5114 15.6818 15.5114H14.3182C14.2636 15.5114 14.2023 15.5114 14.1477 15.5114Z" fill="#FF9800"/>
<path d="M16.3637 16.8887C16.1114 16.8887 15.8864 16.6977 15.8591 16.4386C15.825 16.1591 16.0227 15.9 16.3023 15.8659C18.1023 15.6409 19.8273 14.9591 21.2796 13.9023C21.5046 13.7318 21.825 13.7864 21.9955 14.0182C22.1591 14.2432 22.1114 14.5636 21.8796 14.7341C20.2841 15.8932 18.4023 16.6364 16.425 16.8887C16.4046 16.8887 16.3841 16.8887 16.3637 16.8887Z" fill="#FF9800"/>
<path d="M13.6363 16.8955C13.6159 16.8955 13.5954 16.8955 13.575 16.8955C11.7068 16.6841 9.88633 16.0023 8.31133 14.925C8.07951 14.7682 8.01815 14.4477 8.17497 14.2159C8.33178 13.9841 8.65224 13.9227 8.88406 14.0796C10.3227 15.0614 11.9795 15.6818 13.6841 15.8796C13.9636 15.9137 14.1681 16.1659 14.1341 16.4455C14.1136 16.7046 13.8954 16.8955 13.6363 16.8955Z" fill="#FF9800"/>
</svg>
