<svg width="22" height="22" viewBox="0 0 22 22" fill="none" xmlns="http://www.w3.org/2000/svg">
<rect x="0.0384521" y="0.154297" width="21.5385" height="21.5385" rx="10.7692" fill="#FFF0FB"/>
<path d="M10.8076 11.3276C9.10072 11.3276 7.71149 9.93833 7.71149 8.23141C7.71149 6.52448 9.10072 5.13525 10.8076 5.13525C12.5146 5.13525 13.9038 6.52448 13.9038 8.23141C13.9038 9.93833 12.5146 11.3276 10.8076 11.3276ZM10.8076 5.94295C9.54764 5.94295 8.51918 6.97141 8.51918 8.23141C8.51918 9.49141 9.54764 10.5199 10.8076 10.5199C12.0676 10.5199 13.0961 9.49141 13.0961 8.23141C13.0961 6.97141 12.0676 5.94295 10.8076 5.94295Z" fill="#A30162"/>
<path d="M15.4332 16.7122C15.2124 16.7122 15.0293 16.5291 15.0293 16.3083C15.0293 14.4506 13.1339 12.9429 10.8078 12.9429C8.48164 12.9429 6.58626 14.4506 6.58626 16.3083C6.58626 16.5291 6.40318 16.7122 6.18241 16.7122C5.96164 16.7122 5.77856 16.5291 5.77856 16.3083C5.77856 14.0091 8.03472 12.1353 10.8078 12.1353C13.5809 12.1353 15.837 14.0091 15.837 16.3083C15.837 16.5291 15.6539 16.7122 15.4332 16.7122Z" fill="#A30162"/>
</svg>
