<svg width="30" height="30" viewBox="0 0 30 30" fill="none" xmlns="http://www.w3.org/2000/svg">
<rect width="30" height="30" rx="15" fill="#4CAF50"/>
<rect width="30" height="30" rx="15" fill="white" fill-opacity="0.9"/>
<path d="M18.4091 21.3069H11.5909C9.10229 21.3069 7.67047 19.8751 7.67047 17.3864V12.6137C7.67047 10.1251 9.10229 8.69324 11.5909 8.69324H18.4091C20.8977 8.69324 22.3296 10.1251 22.3296 12.6137V17.3864C22.3296 19.8751 20.8977 21.3069 18.4091 21.3069ZM11.5909 9.71596C9.64093 9.71596 8.6932 10.6637 8.6932 12.6137V17.3864C8.6932 19.3364 9.64093 20.2841 11.5909 20.2841H18.4091C20.3591 20.2841 21.3068 19.3364 21.3068 17.3864V12.6137C21.3068 10.6637 20.3591 9.71596 18.4091 9.71596H11.5909Z" fill="#4CAF50"/>
<path d="M15 17.5569C13.5886 17.5569 12.4432 16.4114 12.4432 15.0001C12.4432 13.5887 13.5886 12.4432 15 12.4432C16.4114 12.4432 17.5568 13.5887 17.5568 15.0001C17.5568 16.4114 16.4114 17.5569 15 17.5569ZM15 13.466C14.1545 13.466 13.4659 14.1546 13.4659 15.0001C13.4659 15.8455 14.1545 16.5341 15 16.5341C15.8454 16.5341 16.5341 15.8455 16.5341 15.0001C16.5341 14.1546 15.8454 13.466 15 13.466Z" fill="#4CAF50"/>
<path d="M8.86365 13.4659H8.18183C7.90229 13.4659 7.67047 13.2341 7.67047 12.9545C7.67047 12.675 7.90229 12.4431 8.18183 12.4431H8.86365C10.6227 12.4431 11.0796 11.9863 11.0796 10.2272V9.54542C11.0796 9.26588 11.3114 9.03406 11.5909 9.03406C11.8705 9.03406 12.1023 9.26588 12.1023 9.54542V10.2272C12.1023 12.5591 11.1955 13.4659 8.86365 13.4659Z" fill="#4CAF50"/>
<path d="M21.8182 13.4659H21.1363C18.8045 13.4659 17.8977 12.5591 17.8977 10.2272V9.54542C17.8977 9.26588 18.1295 9.03406 18.4091 9.03406C18.6886 9.03406 18.9204 9.26588 18.9204 9.54542V10.2272C18.9204 11.9863 19.3773 12.4431 21.1363 12.4431H21.8182C22.0977 12.4431 22.3295 12.675 22.3295 12.9545C22.3295 13.2341 22.0977 13.4659 21.8182 13.4659Z" fill="#4CAF50"/>
<path d="M11.5909 20.9659C11.3114 20.9659 11.0796 20.7341 11.0796 20.4545V19.7727C11.0796 18.0136 10.6227 17.5568 8.86365 17.5568H8.18183C7.90229 17.5568 7.67047 17.325 7.67047 17.0454C7.67047 16.7659 7.90229 16.5341 8.18183 16.5341H8.86365C11.1955 16.5341 12.1023 17.4409 12.1023 19.7727V20.4545C12.1023 20.7341 11.8705 20.9659 11.5909 20.9659Z" fill="#4CAF50"/>
<path d="M18.4091 20.9659C18.1295 20.9659 17.8977 20.7341 17.8977 20.4545V19.7727C17.8977 17.4409 18.8045 16.5341 21.1363 16.5341H21.8182C22.0977 16.5341 22.3295 16.7659 22.3295 17.0454C22.3295 17.325 22.0977 17.5568 21.8182 17.5568H21.1363C19.3773 17.5568 18.9204 18.0136 18.9204 19.7727V20.4545C18.9204 20.7341 18.6886 20.9659 18.4091 20.9659Z" fill="#4CAF50"/>
</svg>
