<svg width="47" height="47" viewBox="0 0 47 47" fill="none" xmlns="http://www.w3.org/2000/svg">
<rect width="47" height="47" rx="23.5" fill="white"/>
<path d="M26.0834 22.1699H15.6667C15.325 22.1699 15.0417 21.8866 15.0417 21.5449C15.0417 21.2033 15.325 20.9199 15.6667 20.9199H26.0834C26.425 20.9199 26.7084 21.2033 26.7084 21.5449C26.7084 21.8866 26.425 22.1699 26.0834 22.1699Z" fill="#4CAF50"/>
<path d="M20.6667 28.8359H19C18.6583 28.8359 18.375 28.5526 18.375 28.2109C18.375 27.8693 18.6583 27.5859 19 27.5859H20.6667C21.0083 27.5859 21.2917 27.8693 21.2917 28.2109C21.2917 28.5526 21.0083 28.8359 20.6667 28.8359Z" fill="#4CAF50"/>
<path d="M26.0833 28.8359H22.75C22.4083 28.8359 22.125 28.5526 22.125 28.2109C22.125 27.8693 22.4083 27.5859 22.75 27.5859H26.0833C26.425 27.5859 26.7083 27.8693 26.7083 28.2109C26.7083 28.5526 26.425 28.8359 26.0833 28.8359Z" fill="#4CAF50"/>
<path d="M28.6334 32.1686H19.3667C16.05 32.1686 15.0417 31.1686 15.0417 27.8853V21.0353C15.0417 17.752 16.05 16.752 19.3667 16.752H26.0834C26.425 16.752 26.7084 17.0353 26.7084 17.377C26.7084 17.7186 26.425 18.002 26.0834 18.002H19.3667C16.75 18.002 16.2917 18.452 16.2917 21.0353V27.877C16.2917 30.4603 16.75 30.9103 19.3667 30.9103H28.625C31.2417 30.9103 31.7 30.4603 31.7 27.877V26.1436C31.7 25.802 31.9834 25.5186 32.325 25.5186C32.6667 25.5186 32.95 25.802 32.95 26.1436V27.877C32.9584 31.1686 31.95 32.1686 28.6334 32.1686Z" fill="#4CAF50"/>
<path d="M30.6667 23.002C30.5834 23.002 30.5084 22.9853 30.425 22.952C30.1917 22.852 30.0417 22.627 30.0417 22.377V17.377C30.0417 17.0353 30.325 16.752 30.6667 16.752C31.0084 16.752 31.2917 17.0353 31.2917 17.377V20.8686L31.8917 20.2686C32.1334 20.027 32.5334 20.027 32.775 20.2686C33.0167 20.5103 33.0167 20.9103 32.775 21.152L31.1084 22.8186C30.9917 22.9353 30.8334 23.002 30.6667 23.002Z" fill="#4CAF50"/>
<path d="M30.6667 23.0025C30.5083 23.0025 30.35 22.9441 30.225 22.8191L28.5583 21.1525C28.3167 20.9108 28.3167 20.5108 28.5583 20.2691C28.8 20.0275 29.2 20.0275 29.4417 20.2691L31.1083 21.9358C31.35 22.1775 31.35 22.5775 31.1083 22.8191C30.9833 22.9441 30.825 23.0025 30.6667 23.0025Z" fill="#4CAF50"/>
</svg>
