<svg width="30" height="30" viewBox="0 0 30 30" fill="none" xmlns="http://www.w3.org/2000/svg">
<rect width="30" height="30" rx="15" fill="#2196F3"/>
<rect width="30" height="30" rx="15" fill="white" fill-opacity="0.9"/>
<path d="M18.4091 20.966H11.5909C8.58411 20.966 7.67047 20.0524 7.67047 17.0455V16.7046C7.67047 16.4251 7.90229 16.1933 8.18183 16.1933C8.83638 16.1933 9.37502 15.6546 9.37502 15.0001C9.37502 14.3455 8.83638 13.8069 8.18183 13.8069C7.90229 13.8069 7.67047 13.5751 7.67047 13.2955V12.9546C7.67047 9.94782 8.58411 9.03418 11.5909 9.03418H18.4091C21.4159 9.03418 22.3296 9.94782 22.3296 12.9546V13.6365C22.3296 13.916 22.0977 14.1478 21.8182 14.1478C21.1637 14.1478 20.625 14.6865 20.625 15.341C20.625 15.9955 21.1637 16.5342 21.8182 16.5342C22.0977 16.5342 22.3296 16.766 22.3296 17.0455C22.3296 20.0524 21.4159 20.966 18.4091 20.966ZM8.6932 17.1546C8.70683 19.5001 9.19093 19.9433 11.5909 19.9433H18.4091C20.6864 19.9433 21.2387 19.541 21.3 17.4955C20.325 17.2637 19.6023 16.3842 19.6023 15.341C19.6023 14.2978 20.3318 13.4183 21.3068 13.1865V12.9546C21.3068 10.5205 20.85 10.0569 18.4091 10.0569H11.5909C9.19093 10.0569 8.70683 10.5001 8.6932 12.8455C9.6682 13.0774 10.3977 13.9569 10.3977 15.0001C10.3977 16.0433 9.6682 16.9228 8.6932 17.1546Z" fill="#2196F3"/>
<path d="M13.6364 11.7615C13.3568 11.7615 13.125 11.5296 13.125 11.2501V9.54554C13.125 9.266 13.3568 9.03418 13.6364 9.03418C13.9159 9.03418 14.1477 9.266 14.1477 9.54554V11.2501C14.1477 11.5296 13.9159 11.7615 13.6364 11.7615Z" fill="#2196F3"/>
<path d="M13.6364 16.7591C13.3568 16.7591 13.125 16.5273 13.125 16.2478V13.7455C13.125 13.4659 13.3568 13.2341 13.6364 13.2341C13.9159 13.2341 14.1477 13.4659 14.1477 13.7455V16.2478C14.1477 16.5341 13.9159 16.7591 13.6364 16.7591Z" fill="#2196F3"/>
<path d="M13.6364 20.9659C13.3568 20.9659 13.125 20.7341 13.125 20.4546V18.75C13.125 18.4705 13.3568 18.2386 13.6364 18.2386C13.9159 18.2386 14.1477 18.4705 14.1477 18.75V20.4546C14.1477 20.7341 13.9159 20.9659 13.6364 20.9659Z" fill="#2196F3"/>
</svg>
