<svg width="32" height="32" viewBox="0 0 32 32" fill="none" xmlns="http://www.w3.org/2000/svg">
<rect width="32" height="32" rx="16" fill="#FFEBFF"/>
<path d="M20.1667 23.2923H11.8334C8.15835 23.2923 7.04169 22.1757 7.04169 18.5007V18.084C7.04169 17.7423 7.32502 17.459 7.66669 17.459C8.46669 17.459 9.12502 16.8007 9.12502 16.0007C9.12502 15.2007 8.46669 14.5423 7.66669 14.5423C7.32502 14.5423 7.04169 14.259 7.04169 13.9173V13.5007C7.04169 9.82565 8.15835 8.70898 11.8334 8.70898H20.1667C23.8417 8.70898 24.9584 9.82565 24.9584 13.5007V14.334C24.9584 14.6757 24.675 14.959 24.3334 14.959C23.5334 14.959 22.875 15.6173 22.875 16.4173C22.875 17.2173 23.5334 17.8757 24.3334 17.8757C24.675 17.8757 24.9584 18.159 24.9584 18.5007C24.9584 22.1757 23.8417 23.2923 20.1667 23.2923ZM8.29169 18.634C8.30835 21.5007 8.90002 22.0423 11.8334 22.0423H20.1667C22.95 22.0423 23.625 21.5507 23.7 19.0507C22.5084 18.7673 21.625 17.6923 21.625 16.4173C21.625 15.1423 22.5167 14.0673 23.7084 13.784V13.5007C23.7084 10.5257 23.15 9.95898 20.1667 9.95898H11.8334C8.90002 9.95898 8.30835 10.5007 8.29169 13.3673C9.48335 13.6507 10.375 14.7257 10.375 16.0007C10.375 17.2757 9.48335 18.3507 8.29169 18.634Z" fill="#EA00FF"/>
<path d="M14.3333 12.0423C13.9916 12.0423 13.7083 11.759 13.7083 11.4173V9.33398C13.7083 8.99232 13.9916 8.70898 14.3333 8.70898C14.675 8.70898 14.9583 8.99232 14.9583 9.33398V11.4173C14.9583 11.759 14.675 12.0423 14.3333 12.0423Z" fill="#EA00FF"/>
<path d="M14.3333 18.1501C13.9916 18.1501 13.7083 17.8668 13.7083 17.5251V14.4668C13.7083 14.1251 13.9916 13.8418 14.3333 13.8418C14.675 13.8418 14.9583 14.1251 14.9583 14.4668V17.5251C14.9583 17.8751 14.675 18.1501 14.3333 18.1501Z" fill="#EA00FF"/>
<path d="M14.3333 23.2923C13.9916 23.2923 13.7083 23.009 13.7083 22.6673V20.584C13.7083 20.2423 13.9916 19.959 14.3333 19.959C14.675 19.959 14.9583 20.2423 14.9583 20.584V22.6673C14.9583 23.009 14.675 23.2923 14.3333 23.2923Z" fill="#EA00FF"/>
</svg>
