<svg width="23" height="22" viewBox="0 0 23 22" fill="none" xmlns="http://www.w3.org/2000/svg">
<rect x="0.5" y="0.384766" width="21.5385" height="21.5385" rx="10.7692" fill="#FF9800"/>
<rect x="0.5" y="0.384766" width="21.5385" height="21.5385" rx="10.7692" fill="white" fill-opacity="0.9"/>
<path d="M13.9615 15.8655H8.57693C6.20231 15.8655 5.48077 15.1439 5.48077 12.7693V12.5001C5.48077 12.2793 5.66385 12.0962 5.88462 12.0962C6.40154 12.0962 6.82693 11.6708 6.82693 11.1539C6.82693 10.637 6.40154 10.2116 5.88462 10.2116C5.66385 10.2116 5.48077 10.0285 5.48077 9.80777V9.53854C5.48077 7.16392 6.20231 6.44238 8.57693 6.44238H13.9615C16.3362 6.44238 17.0577 7.16392 17.0577 9.53854V10.077C17.0577 10.2978 16.8746 10.4808 16.6539 10.4808C16.1369 10.4808 15.7115 10.9062 15.7115 11.4232C15.7115 11.9401 16.1369 12.3655 16.6539 12.3655C16.8746 12.3655 17.0577 12.5485 17.0577 12.7693C17.0577 15.1439 16.3362 15.8655 13.9615 15.8655ZM6.28847 12.8555C6.29924 14.7078 6.68154 15.0578 8.57693 15.0578H13.9615C15.76 15.0578 16.1962 14.7401 16.2446 13.1247C15.4746 12.9416 14.9039 12.247 14.9039 11.4232C14.9039 10.5993 15.48 9.90469 16.25 9.72161V9.53854C16.25 7.61623 15.8892 7.25008 13.9615 7.25008H8.57693C6.68154 7.25008 6.29924 7.60008 6.28847 9.45238C7.05847 9.63546 7.63462 10.3301 7.63462 11.1539C7.63462 11.9778 7.05847 12.6724 6.28847 12.8555Z" fill="#FF9500"/>
<path d="M10.1923 8.59623C9.97153 8.59623 9.78845 8.41315 9.78845 8.19238V6.84623C9.78845 6.62546 9.97153 6.44238 10.1923 6.44238C10.4131 6.44238 10.5961 6.62546 10.5961 6.84623V8.19238C10.5961 8.41315 10.4131 8.59623 10.1923 8.59623Z" fill="#FF9500"/>
<path d="M10.1923 12.5436C9.97153 12.5436 9.78845 12.3605 9.78845 12.1398V10.1636C9.78845 9.94284 9.97153 9.75977 10.1923 9.75977C10.4131 9.75977 10.5961 9.94284 10.5961 10.1636V12.1398C10.5961 12.3659 10.4131 12.5436 10.1923 12.5436Z" fill="#FF9500"/>
<path d="M10.1923 15.8658C9.97153 15.8658 9.78845 15.6827 9.78845 15.4619V14.1158C9.78845 13.895 9.97153 13.7119 10.1923 13.7119C10.4131 13.7119 10.5961 13.895 10.5961 14.1158V15.4619C10.5961 15.6827 10.4131 15.8658 10.1923 15.8658Z" fill="#FF9500"/>
</svg>
